<svg width="14" height="14" viewBox="0 0 14 14" fill="none" xmlns="http://www.w3.org/2000/svg">
<path fill-rule="evenodd" clip-rule="evenodd" d="M13.3333 2.75758C13.3333 3.67031 11.9462 4.46524 9.89667 4.87881C11.9462 5.29234 13.3333 6.08728 13.3333 7.00001C13.3333 7.91274 11.9462 8.70768 9.89667 9.12121C11.9462 9.53478 13.3333 10.3297 13.3333 11.2424C13.3333 12.5813 10.3486 13.6667 6.66667 13.6667C2.98477 13.6667 0 12.5813 0 11.2424C0 10.3297 1.38715 9.53478 3.43667 9.12121C1.38715 8.70768 0 7.91274 0 7.00001C0 6.08728 1.38715 5.29234 3.43667 4.87881C1.38715 4.46524 0 3.67031 0 2.75758C0 1.41871 2.98477 0.333344 6.66667 0.333344C10.3486 0.333344 13.3333 1.41871 13.3333 2.75758Z" fill="white"/>
</svg>
