<svg width="14" height="14" viewBox="0 0 14 14" fill="none" xmlns="http://www.w3.org/2000/svg">
<rect width="14" height="14" fill="#1E1E1E"/>
<g id="Main Page - Logged Out">
<rect width="1280" height="832" transform="translate(-41 -30)" fill="white"/>
<g id="Container">
<rect width="1280" height="832" transform="translate(-41 -30)" fill="#121417"/>
<g id="Header">
<mask id="path-1-inside-1_0_1" fill="white">
<path d="M-41 -30H1239V45H-41V-30Z"/>
</mask>
<path d="M1239 44H-41V46H1239V44Z" fill="#E6E8EB" mask="url(#path-1-inside-1_0_1)"/>
<g id="Logo">
<g id="Logo Icon">
<path id="Icon" fill-rule="evenodd" clip-rule="evenodd" d="M13.6667 2.75757C13.6667 3.6703 12.2795 4.46523 10.23 4.8788C12.2795 5.29233 13.6667 6.08727 13.6667 7C13.6667 7.91273 12.2795 8.70767 10.23 9.1212C12.2795 9.53477 13.6667 10.3297 13.6667 11.2424C13.6667 12.5813 10.6819 13.6667 7 13.6667C3.3181 13.6667 0.333333 12.5813 0.333333 11.2424C0.333333 10.3297 1.72048 9.53477 3.77 9.1212C1.72048 8.70767 0.333333 7.91273 0.333333 7C0.333333 6.08727 1.72048 5.29233 3.77 4.8788C1.72048 4.46523 0.333333 3.6703 0.333333 2.75757C0.333333 1.4187 3.3181 0.333333 7 0.333333C10.6819 0.333333 13.6667 1.4187 13.6667 2.75757Z" fill="white"/>
</g>
</g>
</g>
</g>
</g>
</svg>
